<svg version="1.1"
	 xmlns="http://www.w3.org/2000/svg" xmlns:xlink="http://www.w3.org/1999/xlink" xmlns:a="http://ns.adobe.com/AdobeSVGViewerExtensions/3.0/"
	 x="0px" y="0px" width="914px" height="334.334px" viewBox="0 0 914 334.334"
	 overflow="scroll" enable-background="new 0 0 914 334.334" xml:space="preserve">
<defs>
</defs>
<rect x="714.667" y="188.333" fill="#3D4647" width="39" height="28.667"/>
<rect x="843" y="188.333" fill="#3D4647" width="24.333" height="28.667"/>
<rect x="464.667" y="50" fill="#68C9CF" width="16" height="154"/>
<rect x="265.333" y="50" fill="#68C9CF" width="191.333" height="154"/>
<rect x="284" y="66" fill="#1E314B" width="149.333" height="122.667"/>
<rect x="485.333" y="62" fill="#68C9CF" width="51.333" height="130"/>
<polygon fill="#7B7D7E" points="98.667,212.334 98.667,232.667 132.667,232.667 132.667,334.334 889.333,334.334 889.333,212.334 
	"/>
<rect x="164.001" y="233.835" fill="none" stroke="#000000" stroke-miterlimit="10" width="107.333" height="82"/>
<rect x="526.001" y="233.835" fill="none" stroke="#000000" stroke-miterlimit="10" width="112.667" height="82"/>
<rect x="638.668" y="233.835" fill="none" stroke="#000000" stroke-miterlimit="10" width="112" height="82"/>
<rect x="768.668" y="233.835" fill="none" stroke="#000000" stroke-miterlimit="10" width="103.333" height="82"/>
<rect x="302.001" y="232.834" fill="#2C3335" width="147.333" height="83.001"/>
<polygon fill="#68C9CF" points="742.628,98 734.616,110.667 673.333,110.667 673.333,192 914,192 914,98 "/>
<rect x="456.667" y="50" fill="#353535" width="8" height="154"/>
<rect x="480.667" y="62" fill="#353535" width="4.667" height="130"/>
<polygon fill="#D6D0AB" points="5.221,44.751 0,53.103 0,54.003 265.333,54.003 265.333,44.751 "/>
<polygon fill="#D6D0AB" points="0,201.827 6.258,211.079 265.253,211.079 265.253,201.827 "/>
<polygon fill="#68C9CF" points="690.323,110.667 667.8,84.667 645.277,58.667 690.323,58.667 735.369,58.667 712.846,84.667 "/>
<rect x="645.333" y="0" fill="#68C9CF" width="90" height="58.667"/>
<rect x="679.063" y="91.646" fill="#68C9CF" width="7.917" height="15.063"/>
<rect x="693.667" y="91.646" fill="#68C9CF" width="7.917" height="15.063"/>
<rect x="675.292" y="102.75" fill="#8E8B8C" width="30.125" height="7.917"/>
<rect x="679.056" y="97.646" fill="#59A8AA" width="22.534" height="0.5"/>
<circle fill="#2C3335" cx="787.333" cy="298.667" r="9.333"/>
<circle fill="#2C3335" cx="614.333" cy="298.667" r="9.333"/>
<circle fill="#2C3335" cx="856" cy="298.667" r="9.333"/>
<g>
	<rect x="492.333" y="92.168" fill="#364F56" width="37.333" height="72"/>
	<rect x="499" y="100.168" fill="#253033" width="24" height="17.333"/>
	<rect x="494.333" y="94.834" fill="none" stroke="#FFFFFF" stroke-miterlimit="10" width="33.333" height="60"/>
	<circle fill="#EB2624" cx="521.918" cy="159.5" r="2.667"/>
	<rect x="501.001" y="122.834" fill="#FFFFFF" width="2.75" height="2.75"/>
	<rect x="505.564" y="122.834" fill="#FFFFFF" width="2.75" height="2.75"/>
	<rect x="510.126" y="122.834" fill="#FFFFFF" width="2.75" height="2.75"/>
	<rect x="514.689" y="122.834" fill="#FFFFFF" width="2.75" height="2.75"/>
	<rect x="519.251" y="122.834" fill="#FFFFFF" width="2.75" height="2.75"/>
	<rect x="501.001" y="128.412" fill="#FFFFFF" width="2.75" height="2.75"/>
	<rect x="505.564" y="128.412" fill="#FFFFFF" width="2.75" height="2.75"/>
	<rect x="510.126" y="128.412" fill="#FFFFFF" width="2.75" height="2.75"/>
	<rect x="514.689" y="128.412" fill="#FFFFFF" width="2.75" height="2.75"/>
	<rect x="519.251" y="128.412" fill="#FFFFFF" width="2.75" height="2.75"/>
	<rect x="501.001" y="133.991" fill="#FFFFFF" width="2.75" height="2.75"/>
	<rect x="505.564" y="133.991" fill="#FFFFFF" width="2.75" height="2.75"/>
	<rect x="510.126" y="133.991" fill="#FFFFFF" width="2.75" height="2.75"/>
	<rect x="514.689" y="133.991" fill="#FFFFFF" width="2.75" height="2.75"/>
	<rect x="519.251" y="133.991" fill="#FFFFFF" width="2.75" height="2.75"/>
	<rect x="501.001" y="139.569" fill="#FFFFFF" width="2.75" height="2.75"/>
	<rect x="505.564" y="139.569" fill="#FFFFFF" width="2.75" height="2.75"/>
	<rect x="510.126" y="139.569" fill="#FFFFFF" width="2.75" height="2.75"/>
	<rect x="514.689" y="139.569" fill="#FFFFFF" width="2.75" height="2.75"/>
	<rect x="519.251" y="139.569" fill="#FFFFFF" width="2.75" height="2.75"/>
</g>
<rect x="536.667" y="127.194" fill="#3D4647" width="136.667" height="5.25"/>
<rect x="536.667" y="132.444" fill="#E6E6E3" width="136.667" height="25"/>
<rect x="536.667" y="141.194" fill="#646B6E" width="136.667" height="7.5"/>
<rect x="536.667" y="143.951" fill="#FFFFFF" width="136.667" height="1.985"/>
<rect x="744" y="108.834" fill="#1E314B" width="52.667" height="10.832"/>
<g>
	<polygon fill="#F6F3E0" points="0.093,52.168 0.093,201.166 0.093,202.499 2.468,202.499 265.426,202.499 265.426,52.168 	"/>
	<g>
		<path fill="#2B3187" d="M161.494,91.277c-2.062,0-3.734,1.672-3.734,3.734c0,2.062,1.672,3.734,3.734,3.734
			c2.062,0,3.734-1.672,3.734-3.734C165.229,92.949,163.557,91.277,161.494,91.277z M161.494,97.738
			c-1.506,0-2.727-1.221-2.727-2.727s1.221-2.727,2.727-2.727c1.506,0,2.727,1.221,2.727,2.727S163,97.738,161.494,97.738z"/>
		<path fill="#2B3187" d="M167.926,97.26c-2.062,0-3.734,1.672-3.734,3.734c0,2.062,1.672,3.734,3.734,3.734
			c2.062,0,3.734-1.672,3.734-3.734C171.661,98.932,169.989,97.26,167.926,97.26z M167.926,103.721
			c-1.506,0-2.727-1.221-2.727-2.727c0-1.506,1.221-2.727,2.727-2.727s2.727,1.221,2.727,2.727
			C170.653,102.5,169.432,103.721,167.926,103.721z"/>
		<path fill="#2B3187" d="M174.405,103.086c-2.062,0-3.734,1.672-3.734,3.734c0,2.062,1.672,3.734,3.734,3.734
			c2.062,0,3.734-1.672,3.734-3.734C178.139,104.758,176.467,103.086,174.405,103.086z M174.405,109.547
			c-1.506,0-2.727-1.221-2.727-2.727c0-1.506,1.221-2.727,2.727-2.727c1.506,0,2.727,1.221,2.727,2.727
			C177.131,108.326,175.91,109.547,174.405,109.547z"/>
		<path fill="#2B3187" d="M168.024,108.486c-2.062,0-3.734,1.672-3.734,3.734c0,2.062,1.672,3.734,3.734,3.734
			c2.062,0,3.734-1.672,3.734-3.734C171.759,110.157,170.087,108.486,168.024,108.486z M168.024,114.946
			c-1.506,0-2.727-1.221-2.727-2.727s1.221-2.727,2.727-2.727c1.506,0,2.727,1.221,2.727,2.727S169.53,114.946,168.024,114.946z"/>
		<path fill="#2B3187" d="M161.21,103.18c-2.062,0-3.734,1.672-3.734,3.734c0,2.062,1.672,3.734,3.734,3.734
			c2.062,0,3.734-1.672,3.734-3.734C164.944,104.852,163.272,103.18,161.21,103.18z M161.21,109.641
			c-1.506,0-2.727-1.221-2.727-2.727c0-1.506,1.221-2.727,2.727-2.727c1.506,0,2.727,1.221,2.727,2.727
			C163.937,108.42,162.716,109.641,161.21,109.641z"/>
		<path fill="#2B3187" d="M155.101,97.26c-2.062,0-3.734,1.672-3.734,3.734c0,2.062,1.672,3.734,3.734,3.734
			c2.062,0,3.734-1.672,3.734-3.734C158.835,98.932,157.163,97.26,155.101,97.26z M155.101,103.721
			c-1.506,0-2.727-1.221-2.727-2.727c0-1.506,1.221-2.727,2.727-2.727s2.727,1.221,2.727,2.727
			C157.827,102.5,156.607,103.721,155.101,103.721z"/>
		<path fill="#2B3187" d="M160.647,112.772c-2.062,0-3.734,1.672-3.734,3.734s1.672,3.734,3.734,3.734
			c2.062,0,3.734-1.672,3.734-3.734S162.709,112.772,160.647,112.772z M160.647,119.233c-1.506,0-2.727-1.221-2.727-2.727
			c0-1.506,1.221-2.727,2.727-2.727c1.506,0,2.727,1.221,2.727,2.727C163.374,118.012,162.153,119.233,160.647,119.233z"/>
		<path fill="#2B3187" d="M175.493,112.22c-2.062,0-3.734,1.672-3.734,3.734s1.672,3.734,3.734,3.734
			c2.062,0,3.734-1.672,3.734-3.734S177.555,112.22,175.493,112.22z M175.493,118.681c-1.506,0-2.727-1.221-2.727-2.727
			c0-1.506,1.221-2.727,2.727-2.727s2.727,1.221,2.727,2.727C178.219,117.46,176.999,118.681,175.493,118.681z"/>
		<path fill="#2B3187" d="M168.024,117.336c-2.062,0-3.734,1.672-3.734,3.734c0,2.062,1.672,3.734,3.734,3.734
			c2.062,0,3.734-1.672,3.734-3.734C171.759,119.008,170.087,117.336,168.024,117.336z M168.024,123.797
			c-1.506,0-2.727-1.221-2.727-2.727s1.221-2.727,2.727-2.727c1.506,0,2.727,1.221,2.727,2.727S169.53,123.797,168.024,123.797z"/>
		<path fill="#2B3187" d="M168.024,125.518c-2.062,0-3.734,1.672-3.734,3.734c0,2.062,1.672,3.734,3.734,3.734
			c2.062,0,3.734-1.672,3.734-3.734C171.759,127.19,170.087,125.518,168.024,125.518z M168.024,131.979
			c-1.506,0-2.727-1.221-2.727-2.727c0-1.506,1.221-2.727,2.727-2.727c1.506,0,2.727,1.221,2.727,2.727
			C170.751,130.758,169.53,131.979,168.024,131.979z"/>
		<polygon fill="#6CBE45" points="201.131,138.042 201.131,138.042 174.351,138.042 197.999,98.433 197.999,94.455 197.999,94.455 
			197.999,90.388 197.999,90.388 197.999,90.388 194.671,90.388 194.671,90.388 168.263,90.388 168.263,94.455 194.671,94.455 
			194.671,97.037 167.731,142.107 174.012,142.107 174.012,142.11 197.999,142.11 197.999,160.211 79.539,160.211 69.708,152.092 
			76.913,145.004 74.259,142.344 66.771,149.666 66.766,149.662 66.731,149.705 64.003,152.372 64.321,152.636 64.319,152.639 
			66.945,154.808 66.946,154.809 78.412,164.279 197.999,164.279 201.131,164.279 201.516,164.279 201.516,138.042 		"/>
		<polygon fill="#6CBE45" points="165.307,140.911 167.36,137.442 140.488,98.469 140.488,93.29 136.971,93.29 136.99,99.92 
			165.274,140.942 		"/>
		<g>
			<path fill="#2A3491" d="M124.89,127.421c0-11.797-11.643-12.716-11.643-12.716H92.114h-3.992h-4.601c-0.179,0-0.359,0-0.54,0
				h-0.23l0,0c-0.83,0-1.66,0-2.356,0.001v0.536c1.423,0.386,2.084,1.86,2.356,2.726v37.595c-0.272,0.866-0.933,2.34-2.356,2.726
				v0.536c0.696,0.001,1.525,0.001,2.356,0.001l0,0h0.23c0.181,0,0.362,0,0.54,0h7.978c0.179,0,0.359,0,0.54,0h0.075l0,0
				c0.882,0,1.772,0,2.511-0.001v-0.536c-1.898-0.514-2.441-2.964-2.511-3.324v-14.523h21.439
				C125.043,140.443,124.89,127.421,124.89,127.421z M107.608,133.549H92.114v-11.735h15.296c0,0,7.52,0.419,7.52,5.798
				C114.93,127.611,115.029,133.549,107.608,133.549z"/>
			<path fill="#2A3491" d="M141.107,149.348c0-3.172-3.131-3.419-3.131-3.419h-5.683h-1.074h-1.237c-0.048,0-0.097,0-0.145,0h-0.062
				l0,0c-0.223,0-0.446,0-0.633,0v0.144c0.383,0.104,0.56,0.5,0.633,0.733v10.109c-0.073,0.233-0.251,0.629-0.633,0.733v0.144
				c0.187,0,0.41,0,0.633,0l0,0h0.062c0.049,0,0.097,0,0.145,0h2.145c0.048,0,0.097,0,0.145,0h0.02l0,0c0.237,0,0.476,0,0.675,0
				v-0.144c-0.51-0.138-0.656-0.797-0.675-0.894v-3.905h5.765C141.148,152.849,141.107,149.348,141.107,149.348z M136.46,150.996
				h-4.166v-3.156h4.113c0,0,2.022,0.113,2.022,1.559C138.429,149.399,138.455,150.996,136.46,150.996z"/>
			<path fill="#2A3491" d="M119.729,145.459c-3.903,0-7.066,2.861-7.066,6.389c0,3.529,3.164,6.389,7.066,6.389
				s7.066-2.861,7.066-6.389C126.795,148.32,123.631,145.459,119.729,145.459z M119.642,156.087c-2.3,0-4.165-1.846-4.165-4.124
				c0-2.277,1.865-4.124,4.165-4.124s4.165,1.846,4.165,4.124C123.808,154.241,121.943,156.087,119.642,156.087z"/>
			<path fill="#2A3491" d="M111.444,157.663c-0.496-0.135-1.14-0.817-1.14-0.817l0,0l-2.258-4.07c2.359-0.5,2.326-3.428,2.326-3.428
				c0-3.172-3.131-3.419-3.131-3.419h-5.683h-1.074h-1.237c-0.048,0-0.097,0-0.145,0h-0.062c-0.223,0-0.446,0-0.633,0v0.144
				c0.383,0.104,0.56,0.5,0.633,0.733v10.109c-0.073,0.233-0.251,0.629-0.633,0.733v0.144c0.187,0,0.41,0,0.633,0h0.062
				c0.049,0,0.097,0,0.145,0h2.145c0.048,0,0.097,0,0.145,0h0.02c0.237,0,0.476,0,0.675,0v-0.144
				c-0.51-0.138-0.656-0.797-0.675-0.894v-3.905h3.507l2.221,3.996c0,0-0.432,0.682-0.928,0.817v0.13c0.465,0.001,1.174,0,1.454,0
				l0,0h2.875h0.131h0.012l0,0c0.216,0,0.434,0,0.615,0V157.663z M101.557,147.84h4.113c0,0,2.022,0.113,2.022,1.559
				c0,0,0.027,1.597-1.969,1.597h-4.166V147.84z"/>
			<path fill="#2A3491" d="M195.851,145.928c0-0.195,0-0.389,0-0.553h-0.13c-0.086,0.317-0.394,0.478-0.607,0.553h-3.917h-2.643
				h-3.859c-0.212-0.075-0.521-0.236-0.607-0.553h-0.13c0,0.163,0,0.358,0,0.553l0,0v0.074v0.131v1.887v0.131v0.062l0,0
				c0,0.199,0,0.398,0,0.565h0.13c0.091-0.335,0.431-0.496,0.642-0.565h3.824v8.713c-0.047,0.184-0.201,0.63-0.592,0.736v0.13
				c0.175,0,0.384,0,0.592,0l0,0h0.034h0.131h2.328h0.131h0.019l0,0c0.213,0,0.429,0,0.608,0v-0.13
				c-0.457-0.124-0.589-0.709-0.608-0.803v-8.647h3.881c0.212,0.069,0.551,0.23,0.642,0.565h0.13c0-0.167,0-0.366,0-0.565l0,0
				v-0.062v-0.131v-1.887v-0.131V145.928L195.851,145.928z"/>
			<path fill="#2A3491" d="M154.429,155.628c0-0.201,0-0.403,0-0.571h-0.13c-0.094,0.346-0.453,0.506-0.663,0.571h-7.078v-8.929
				c0.07-0.212,0.23-0.549,0.564-0.64v-0.13c-0.167,0-0.365,0-0.564,0l0,0h-0.063h-0.131H144.1h-0.131h-0.053l0,0
				c-0.202,0-0.404,0-0.573,0v0.13c0.35,0.095,0.509,0.461,0.573,0.669v8.9v2.165h2.643h7.079c0.21,0.066,0.568,0.226,0.661,0.571
				h0.13c0-0.169,0-0.37,0-0.571l0,0v-0.056v-0.131v-1.793v-0.131V155.628L154.429,155.628z"/>
			<path fill="#2A3491" d="M169.475,157.663c-0.426-0.115-0.81-0.563-0.911-0.688l-5.265-10.495c0.136-0.114,0.42-0.325,0.774-0.421
				v-0.13c-0.303,0-0.71,0-1.035,0v0h-1.622v0c-0.059,0-0.124,0-0.194,0l0,0l0,0c-0.33,0-0.756,0-1.071,0v0.13
				c0.329,0.089,0.635,0.278,0.806,0.396l-5.206,10.334l0,0c0,0-0.512,0.74-1.008,0.875v0.13c0.149,0,0.324,0,0.502,0v0h0.125h0.131
				h2.301l0,0c0.332,0,0.763,0,1.081,0v-0.13c-0.303-0.082-0.593-0.31-0.774-0.476l1.261-2.496h5.485l0,0l1.264,2.501
				c-0.169,0.149-0.472,0.383-0.799,0.471v0.13c0.324,0,0.768,0,1.103,0l0,0h2.295h0.131h0.126v0c0.177,0,0.352,0,0.501,0V157.663z
				 M160.26,152.927l1.852-3.665l1.852,3.665H160.26z"/>
			<path fill="#2A3491" d="M182.247,154.367c0.106-3.897-5.657-3.597-5.657-3.597c-3.684-0.016-3.73-1.252-3.639-1.658
				c0.346-1.546,3.203-1.429,3.203-1.429c1.805-0.026,3.317,0.719,4.123,1.217c0.15,0.167,0.353,0.465,0.27,0.792l0.085,0.048
				l1.504-2.668l-0.088-0.05c-0.281,0.284-0.736,0.204-0.924,0.155c-2.433-1.472-4.58-1.395-4.58-1.395
				c-6.011-0.177-5.515,3.602-5.515,3.602c0.626,3.46,5.704,3.323,5.704,3.323c4.275,0.172,3.492,1.983,3.492,1.983
				c-0.687,2.264-5.649,1.06-7.604,0.489c-0.163-0.141-0.44-0.44-0.382-0.804l-0.108-0.048l-1.398,3.022l0.103,0.046
				c0.291-0.355,0.854-0.253,0.972-0.227c2.05,0.959,5.136,0.859,5.136,0.859C182.661,158.382,182.247,154.367,182.247,154.367z"/>
		</g>
	</g>
</g>
</svg>