<svg version="1.1"
	 xmlns="http://www.w3.org/2000/svg" xmlns:xlink="http://www.w3.org/1999/xlink" xmlns:a="http://ns.adobe.com/AdobeSVGViewerExtensions/3.0/"
	 x="0px" y="0px" width="727.825px" height="391.086px" viewBox="0 0 727.825 391.086"
	 overflow="scroll" enable-background="new 0 0 727.825 391.086" xml:space="preserve">
<defs>
</defs>
<path fill="#000099" d="M515.999,4.707c-10.916,0-19.764,8.849-19.764,19.765c0,10.916,8.849,19.765,19.764,19.765
	c10.916,0,19.765-8.849,19.765-19.765C535.763,13.556,526.915,4.707,515.999,4.707z M515.999,38.903
	c-7.97,0-14.431-6.461-14.431-14.431s6.461-14.431,14.431-14.431c7.97,0,14.431,6.461,14.431,14.431S523.969,38.903,515.999,38.903z
	"/>
<path fill="#000099" d="M550.042,36.372c-10.916,0-19.765,8.849-19.765,19.765c0,10.916,8.849,19.765,19.765,19.765
	c10.916,0,19.765-8.849,19.765-19.765C569.807,45.221,560.958,36.372,550.042,36.372z M550.042,70.568
	c-7.97,0-14.431-6.461-14.431-14.431s6.461-14.431,14.431-14.431s14.431,6.461,14.431,14.431S558.013,70.568,550.042,70.568z"/>
<path fill="#000099" d="M584.33,67.208c-10.916,0-19.765,8.849-19.765,19.765c0,10.916,8.849,19.765,19.765,19.765
	c10.916,0,19.765-8.849,19.765-19.765C604.094,76.056,595.245,67.208,584.33,67.208z M584.33,101.403
	c-7.97,0-14.431-6.461-14.431-14.431s6.461-14.431,14.431-14.431s14.431,6.461,14.431,14.431S592.3,101.403,584.33,101.403z"/>
<path fill="#000099" d="M550.56,95.787c-10.916,0-19.765,8.849-19.765,19.765c0,10.916,8.849,19.765,19.765,19.765
	c10.916,0,19.765-8.849,19.765-19.765C570.325,104.636,561.476,95.787,550.56,95.787z M550.56,129.983
	c-7.97,0-14.431-6.461-14.431-14.431s6.461-14.431,14.431-14.431c7.97,0,14.431,6.461,14.431,14.431S558.53,129.983,550.56,129.983z
	"/>
<path fill="#000099" d="M514.494,67.707c-10.916,0-19.765,8.849-19.765,19.765c0,10.916,8.849,19.765,19.765,19.765
	c10.916,0,19.765-8.849,19.765-19.765C534.259,76.556,525.41,67.707,514.494,67.707z M514.494,101.903
	c-7.97,0-14.431-6.461-14.431-14.431s6.461-14.431,14.431-14.431c7.97,0,14.431,6.461,14.431,14.431
	S522.465,101.903,514.494,101.903z"/>
<path fill="#000099" d="M482.16,36.372c-10.916,0-19.765,8.849-19.765,19.765c0,10.916,8.849,19.765,19.765,19.765
	c10.916,0,19.765-8.849,19.765-19.765C501.924,45.221,493.076,36.372,482.16,36.372z M482.16,70.568
	c-7.97,0-14.431-6.461-14.431-14.431s6.461-14.431,14.431-14.431s14.431,6.461,14.431,14.431S490.13,70.568,482.16,70.568z"/>
<path fill="#000099" d="M511.514,118.475c-10.916,0-19.765,8.849-19.765,19.765c0,10.916,8.849,19.765,19.765,19.765
	c10.916,0,19.765-8.849,19.765-19.765C531.278,127.323,522.43,118.475,511.514,118.475z M511.514,152.67
	c-7.97,0-14.431-6.461-14.431-14.431s6.461-14.431,14.431-14.431s14.431,6.461,14.431,14.431S519.484,152.67,511.514,152.67z"/>
<path fill="#000099" d="M590.089,115.551c-10.916,0-19.765,8.849-19.765,19.765c0,10.916,8.849,19.765,19.765,19.765
	c10.916,0,19.765-8.849,19.765-19.765C609.854,124.4,601.005,115.551,590.089,115.551z M590.089,149.747
	c-7.97,0-14.431-6.461-14.431-14.431s6.461-14.431,14.431-14.431s14.431,6.461,14.431,14.431S598.059,149.747,590.089,149.747z"/>
<path fill="#000099" d="M550.56,142.631c-10.916,0-19.765,8.849-19.765,19.765c0,10.916,8.849,19.765,19.765,19.765
	c10.916,0,19.765-8.849,19.765-19.765C570.325,151.48,561.476,142.631,550.56,142.631z M550.56,176.827
	c-7.97,0-14.431-6.461-14.431-14.431s6.461-14.431,14.431-14.431s14.431,6.461,14.431,14.431S558.53,176.827,550.56,176.827z"/>
<path fill="#000099" d="M550.56,185.937c-10.916,0-19.765,8.849-19.765,19.765c0,10.916,8.849,19.765,19.765,19.765
	c10.916,0,19.765-8.849,19.765-19.765C570.325,194.786,561.476,185.937,550.56,185.937z M550.56,220.133
	c-7.97,0-14.431-6.461-14.431-14.431s6.461-14.431,14.431-14.431c7.97,0,14.431,6.461,14.431,14.431S558.53,220.133,550.56,220.133z
	"/>
<polygon fill="#36F500" points="725.787,252.224 725.787,252.224 584.045,252.224 709.209,42.583 709.209,21.528 709.209,21.528 
	709.209,0 709.209,0 709.209,0 691.594,0 691.594,0 551.821,0 551.821,21.528 691.594,21.528 691.594,35.195 549.01,273.734 
	582.25,273.734 582.25,273.751 709.209,273.751 709.209,369.559 82.23,369.559 30.198,326.584 68.333,289.068 54.285,274.992 
	14.651,313.743 14.626,313.723 14.44,313.95 0,328.068 1.685,329.463 1.673,329.478 15.576,340.961 15.579,340.964 76.264,391.086 
	709.209,391.086 725.787,391.086 727.825,391.086 727.825,252.224 "/>
<polygon fill="#36F500" points="536.18,267.409 547.043,249.048 404.819,42.774 404.819,15.36 386.204,15.36 386.305,50.453 
	536.005,267.57 "/>
<g>
	<path fill="#0000A8" d="M322.263,196.006c0-62.436-61.625-67.301-61.625-67.301h-111.85h-21.13h-24.354c-0.946,0-1.902,0-2.86,0
		h-1.219l0,0c-4.394,0-8.786,0.002-12.468,0.007v2.838c7.531,2.041,11.03,9.844,12.468,14.428v198.981
		c-1.438,4.583-4.936,12.387-12.468,14.428v2.838c3.682,0.005,8.074,0.007,12.468,0.007l0,0h1.219c0.959,0,1.915,0,2.86,0h42.226
		c0.945,0,1.901,0,2.86,0h0.398l0,0c4.666,0,9.378-0.002,13.289-0.007v-2.838c-10.046-2.722-12.919-15.69-13.289-17.59v-76.867
		h113.472C323.074,264.928,322.263,196.006,322.263,196.006z M230.793,228.44h-82.006v-62.112h80.959c0,0,39.8,2.218,39.8,30.686
		C269.546,197.014,270.069,228.44,230.793,228.44z"/>
	<path fill="#0000A8" d="M408.094,312.059c0-16.789-16.571-18.098-16.571-18.098h-30.077h-5.682h-6.549c-0.254,0-0.511,0-0.769,0
		h-0.328l0,0c-1.182,0-2.363,0.001-3.353,0.002v0.763c2.025,0.549,2.966,2.647,3.353,3.88v53.507
		c-0.387,1.232-1.327,3.331-3.353,3.88v0.763c0.99,0.001,2.171,0.002,3.353,0.002l0,0h0.328c0.258,0,0.515,0,0.769,0h11.355
		c0.254,0,0.511,0,0.769,0h0.107l0,0c1.255,0,2.522-0.001,3.574-0.002v-0.763c-2.701-0.732-3.474-4.219-3.574-4.73v-20.67h30.513
		C408.312,330.593,408.094,312.059,408.094,312.059z M383.498,320.781h-22.052v-16.702h21.77c0,0,10.702,0.596,10.702,8.252
		C393.918,312.331,394.059,320.781,383.498,320.781z"/>
	<path fill="#0000A8" d="M294.944,291.477c-20.656,0-37.401,15.141-37.401,33.818s16.745,33.818,37.401,33.818
		c20.656,0,37.401-15.141,37.401-33.818S315.6,291.477,294.944,291.477z M294.488,347.73c-12.175,0-22.045-9.772-22.045-21.825
		c0-12.054,9.87-21.826,22.045-21.826c12.175,0,22.045,9.772,22.045,21.826C316.533,337.959,306.663,347.73,294.488,347.73z"/>
	<path fill="#0000A8" d="M251.094,356.069c-2.628-0.712-6.036-4.324-6.036-4.324l0,0l-11.952-21.542
		c12.484-2.646,12.31-18.143,12.31-18.143c0-16.789-16.571-18.098-16.571-18.098h-30.077h-5.682h-6.549c-0.254,0-0.511,0-0.769,0
		h-0.328c-1.182,0-2.363,0.001-3.353,0.002v0.763c2.025,0.549,2.966,2.647,3.353,3.88v53.507c-0.387,1.232-1.327,3.331-3.353,3.88
		v0.763c0.99,0.001,2.171,0.002,3.353,0.002h0.328c0.258,0,0.515,0,0.769,0h11.355c0.254,0,0.511,0,0.769,0h0.107
		c1.255,0,2.522-0.001,3.573-0.002v-0.763c-2.701-0.732-3.474-4.219-3.573-4.73v-20.67h18.563l11.753,21.152
		c0,0-2.285,3.612-4.912,4.324v0.688c2.458,0.003,6.213,0.001,7.697,0l0.001,0.001h15.216h0.693h0.062l0,0
		c1.142,0,2.297-0.001,3.254-0.002V356.069z M198.767,304.079h21.77c0,0,10.702,0.596,10.702,8.252c0,0,0.141,8.451-10.421,8.451
		h-22.052V304.079z"/>
	<path fill="#0000A8" d="M697.839,293.962c0-1.033-0.001-2.06-0.002-2.925h-0.688c-0.455,1.677-2.087,2.528-3.211,2.925h-20.729
		h-13.987h-20.425c-1.124-0.398-2.757-1.248-3.211-2.925h-0.688c-0.001,0.865-0.001,1.893-0.002,2.925l0,0v0.391v0.693v9.988v0.693
		v0.327l0,0c0,1.054,0.001,2.106,0.002,2.989h0.688c0.481-1.773,2.279-2.623,3.399-2.989h20.237v46.118
		c-0.251,0.974-1.062,3.335-3.135,3.896v0.688c0.924,0.001,2.033,0.002,3.135,0.002l0,0h0.181h0.693h12.321h0.693h0.099l0,0
		c1.13,0,2.271-0.001,3.218-0.002v-0.688c-2.417-0.655-3.12-3.755-3.218-4.25v-45.765h20.541c1.12,0.366,2.919,1.216,3.399,2.989
		h0.688c0.001-0.883,0.002-1.935,0.002-2.989l0,0v-0.327v-0.693v-9.988v-0.693V293.962L697.839,293.962z"/>
	<path fill="#0000A8" d="M478.603,345.298c0-1.066-0.001-2.131-0.002-3.024h-0.688c-0.496,1.831-2.398,2.678-3.507,3.024h-37.461
		v-47.26c0.369-1.121,1.218-2.908,2.985-3.386v-0.688c-0.882-0.001-1.932-0.002-2.985-0.002l0,0h-0.332h-0.693h-11.988h-0.693
		h-0.282l0,0c-1.069,0-2.139,0.001-3.035,0.002v0.688c1.851,0.502,2.696,2.438,3.035,3.542v47.105v11.461h13.987h37.469
		c1.11,0.348,3.004,1.195,3.499,3.022h0.688c0.001-0.892,0.001-1.957,0.002-3.022l0,0v-0.295v-0.693v-9.488v-0.693V345.298
		L478.603,345.298z"/>
	<path fill="#0000A8" d="M558.24,356.069c-2.255-0.611-4.289-2.98-4.823-3.642l-27.864-55.547c0.718-0.604,2.223-1.721,4.096-2.228
		v-0.688c-1.603-0.002-3.757-0.002-5.476-0.001v0h-8.583v0.001c-0.314,0-0.659,0-1.029,0l-0.001,0l0,0
		c-1.748-0.001-4.004-0.001-5.667,0.001v0.688c1.743,0.472,3.361,1.47,4.264,2.095l-27.554,54.693l0,0c0,0-2.707,3.917-5.335,4.629
		v0.688c0.79,0.001,1.715,0.002,2.656,0.002v0h0.661h0.693h12.18l0,0c1.755,0.001,4.04,0.001,5.72-0.001v-0.688
		c-1.604-0.435-3.141-1.643-4.099-2.52l6.675-13.211h29.033v0l6.688,13.237c-0.894,0.79-2.496,2.025-4.228,2.494v0.688
		c1.717,0.002,4.067,0.002,5.837,0.001l0,0h12.146h0.693h0.666v0c0.939,0,1.862-0.001,2.65-0.002V356.069z M509.469,331.006
		l9.802-19.398l9.801,19.398H509.469z"/>
	<path fill="#0000A8" d="M625.839,338.625c0.563-20.625-29.941-19.038-29.941-19.038c-19.497-0.087-19.741-6.626-19.26-8.775
		c1.833-8.182,16.95-7.563,16.95-7.563c9.556-0.136,17.558,3.807,21.822,6.442c0.793,0.885,1.866,2.461,1.431,4.191l0.451,0.253
		l7.959-14.12l-0.467-0.265c-1.489,1.505-3.894,1.082-4.893,0.818c-12.876-7.793-24.24-7.382-24.24-7.382
		c-31.813-0.938-29.188,19.063-29.188,19.063c3.313,18.313,30.188,17.59,30.188,17.59c22.625,0.91,18.48,10.498,18.48,10.498
		c-3.635,11.985-29.899,5.611-40.244,2.588c-0.863-0.748-2.329-2.331-2.022-4.254l-0.569-0.256l-7.397,15.993l0.547,0.246
		c1.542-1.877,4.519-1.339,5.145-1.201c10.852,5.075,27.185,4.547,27.185,4.547C628.03,359.875,625.839,338.625,625.839,338.625z"/>
</g>
</svg>